<svg xmlns="http://www.w3.org/2000/svg" viewBox="0 0 500 500"><g id="freepik--background-complete--inject-179"><path d="M397.49,199l.72,1.2a8.28,8.28,0,0,0,3.4,3.13l1.26.62-1.2.72a8.25,8.25,0,0,0-3.13,3.39l-.62,1.26-.72-1.2a8.21,8.21,0,0,0-3.4-3.13l-1.25-.62,1.19-.72a8.15,8.15,0,0,0,3.13-3.4Z" style="fill:#e0e0e0"></path><path d="M345.41,51l.41.67a4.56,4.56,0,0,0,1.92,1.77l.71.35-.68.41A4.62,4.62,0,0,0,346,56.12l-.35.71-.41-.68a4.68,4.68,0,0,0-1.92-1.77l-.71-.35.68-.41a4.59,4.59,0,0,0,1.77-1.91Z" style="fill:#e0e0e0"></path><path d="M377.75,91.9l1.17,1.95a13.39,13.39,0,0,0,5.52,5.08l2,1-2,1.18a13.24,13.24,0,0,0-5.08,5.51l-1,2-1.17-2a13.37,13.37,0,0,0-5.51-5.08l-2-1,1.95-1.17a13.34,13.34,0,0,0,5.07-5.51Z" style="fill:#e0e0e0"></path><path d="M46.17,277.06l.72,1.2a8.15,8.15,0,0,0,3.4,3.13l1.25.62-1.2.72a8.28,8.28,0,0,0-3.13,3.4l-.62,1.26-.72-1.2a8.18,8.18,0,0,0-3.39-3.13l-1.26-.62,1.2-.72a8.21,8.21,0,0,0,3.13-3.4Z" style="fill:#e0e0e0"></path><path d="M184.24,27.2l.72,1.2a8.21,8.21,0,0,0,3.4,3.13l1.25.62-1.2.72a8.19,8.19,0,0,0-3.12,3.4l-.62,1.25-.73-1.2a8.16,8.16,0,0,0-3.39-3.12l-1.26-.62,1.2-.73a8.19,8.19,0,0,0,3.13-3.39Z" style="fill:#e0e0e0"></path><path d="M420.42,98.16l.69.27a4.28,4.28,0,0,0,2.45.24l.73-.14-.28.7a4.42,4.42,0,0,0-.24,2.44l.14.73-.69-.28a4.32,4.32,0,0,0-2.44-.23L420,102l.28-.69a4.33,4.33,0,0,0,.24-2.44Z" style="fill:#ebebeb"></path><path d="M148.59,31.12l.69.28a4.33,4.33,0,0,0,2.44.24l.74-.14-.28.69a4.37,4.37,0,0,0-.24,2.45l.14.73-.69-.28a4.46,4.46,0,0,0-2.45-.24l-.73.14.28-.69a4.45,4.45,0,0,0,.24-2.45Z" style="fill:#ebebeb"></path><path d="M124,357.88l.69.28a4.46,4.46,0,0,0,2.45.24l.73-.14-.28.69a4.45,4.45,0,0,0-.24,2.45l.14.73-.69-.28a4.37,4.37,0,0,0-2.45-.24l-.73.14.28-.69a4.46,4.46,0,0,0,.24-2.45Z" style="fill:#ebebeb"></path><path d="M42.63,84l.69.28a4.37,4.37,0,0,0,2.45.24l.73-.14-.28.69A4.46,4.46,0,0,0,46,87.55l.14.73L45.43,88A4.42,4.42,0,0,0,43,87.76l-.74.14.28-.69a4.33,4.33,0,0,0,.24-2.44Z" style="fill:#ebebeb"></path><path d="M422.36,148.77l.34.14a2.13,2.13,0,0,0,1.22.12l.37-.07-.14.35a2.21,2.21,0,0,0-.12,1.22l.07.37-.34-.14a2.16,2.16,0,0,0-1.23-.12l-.36.07.14-.35a2.31,2.31,0,0,0,.12-1.22Z" style="fill:#ebebeb"></path><path d="M173.36,49.23l.34.14a2.13,2.13,0,0,0,1.22.12l.37-.07-.14.34A2.16,2.16,0,0,0,175,51l.07.36-.34-.14a2.35,2.35,0,0,0-1.23-.12l-.36.07.14-.34a2.31,2.31,0,0,0,.12-1.22Z" style="fill:#ebebeb"></path><path d="M166.3,473.44C185.68,460.5,190.41,436,190,414c-.07-3.69.4-7.56-1.32-10.82s-5.83-5.52-9.2-4c-2.78,1.24-4,4.41-5.63,7a21.73,21.73,0,0,1-8.88,8.12c-2.39,1.18-5.34,1.88-7.67.57-3.19-1.8-3.5-6.19-3.42-9.86l.45-20.46c.08-3.66.15-7.4-.95-10.89s-3.6-6.76-7.11-7.79-7.91.92-8.71,4.49a34.42,34.42,0,0,0-.18,4.55c-.12,1.52-.87,3.19-2.34,3.6s-2.95-.66-4-1.75c-3.77-3.75-6.3-8.55-8.65-13.32s-4.64-9.66-8-13.74-8.17-7.35-13.47-7.73-11,2.78-12.44,7.91,1.54,10.42,4.79,14.65a82.14,82.14,0,0,0,17,16.47c1.16.84,2.41,1.74,2.84,3.11.76,2.45-1.62,4.84-4.07,5.6-2.78.87-5.78.54-8.67.84s-6.05,1.5-7.19,4.18c-1.58,3.72,1.53,7.69,4.61,10.31a71.41,71.41,0,0,0,20.81,12.27c2.71,1,5.57,1.93,7.74,3.86s3.45,5.23,2.08,7.79-4.8,3.34-7.65,2.77-5.38-2.13-8.09-3.19c-5.07-2-11.65-1.73-15,2.57-2.19,2.83-2.44,6.81-1.41,10.23a26.72,26.72,0,0,0,5.49,9.13A71.25,71.25,0,0,0,131.78,472c11.77,4.22,22.7,5.48,34.52,1.42" style="fill:#ebebeb"></path><path d="M164.78,473.86c-3.12-11.17-11.65-37.46-16.73-49.83q-1.94-4.62-3.8-9.14c-1.26-3-2.5-6-3.9-8.8a165.37,165.37,0,0,0-9-15.82c-3.1-4.9-6.22-9.43-9.17-13.65s-5.8-8.1-8.53-11.52a131.38,131.38,0,0,0-14.12-15.21c-1.8-1.66-3.24-2.91-4.22-3.74l-1.13-.94c-.26-.21-.4-.3-.4-.3l.36.34,1.09,1c1,.86,2.38,2.13,4.16,3.82a136.57,136.57,0,0,1,14,15.29c2.71,3.43,5.52,7.32,8.46,11.54s6,8.77,9.12,13.66a164.93,164.93,0,0,1,8.92,15.79c1.39,2.82,2.62,5.77,3.87,8.78s2.51,6.05,3.8,9.13c5.07,12.36,13.61,38.62,16.75,49.76" style="fill:#e0e0e0"></path><path d="M140.22,406a10.73,10.73,0,0,0,.36-1.56c.2-1,.45-2.48.73-4.3.57-3.64,1.2-8.69,1.87-14.26s1.38-10.6,2-14.22c.32-1.81.6-3.27.8-4.28a8.85,8.85,0,0,0,.26-1.58,8.93,8.93,0,0,0-.47,1.53c-.27,1-.6,2.45-1,4.26-.75,3.61-1.52,8.64-2.19,14.22s-1.26,10.52-1.7,14.27c-.23,1.75-.42,3.2-.56,4.32A7.85,7.85,0,0,0,140.22,406Z" style="fill:#e0e0e0"></path><path d="M92.66,396.53a1.68,1.68,0,0,0,.49.09l1.41.14c1.23.11,3,.28,5.18.56,4.36.52,10.36,1.45,16.93,2.77s12.47,2.81,16.7,4c2.12.58,3.82,1.09,5,1.44l1.36.4a1.58,1.58,0,0,0,.49.11,1.77,1.77,0,0,0-.45-.21l-1.33-.5c-1.16-.42-2.85-1-5-1.62-4.21-1.29-10.11-2.82-16.7-4.16s-12.61-2.2-17-2.62c-2.19-.23-4-.34-5.2-.39l-1.42,0A1.66,1.66,0,0,0,92.66,396.53Z" style="fill:#e0e0e0"></path><path d="M160.18,458.65a3.19,3.19,0,0,0,.32-.57c.22-.44.49-1,.83-1.7.72-1.47,1.71-3.63,2.89-6.31,2.37-5.37,5.43-12.87,8.69-21.19s6.25-15.85,8.53-21.25c1.13-2.64,2.05-4.8,2.72-6.38.31-.71.55-1.28.74-1.73a3,3,0,0,0,.22-.62,4.26,4.26,0,0,0-.32.57l-.83,1.69c-.72,1.48-1.7,3.64-2.89,6.32-2.37,5.36-5.42,12.87-8.69,21.19s-6.25,15.85-8.53,21.24l-2.72,6.38L160.4,458A2.82,2.82,0,0,0,160.18,458.65Z" style="fill:#e0e0e0"></path><path d="M97.12,437.55a4,4,0,0,0,.63.25l1.83.62,6.76,2.26c5.7,1.91,13.55,4.64,22.21,7.68s16.54,5.72,22.28,7.53c2.87.91,5.2,1.62,6.82,2.09l1.87.52a2.6,2.6,0,0,0,.66.15,3.45,3.45,0,0,0-.63-.25l-1.84-.63L151,455.52c-5.71-1.91-13.56-4.64-22.22-7.68s-16.54-5.72-22.28-7.53c-2.87-.91-5.2-1.63-6.81-2.09l-1.87-.53A3,3,0,0,0,97.12,437.55Z" style="fill:#e0e0e0"></path><path d="M143.92,271.1c-14-9.35-23.72-9.61-30.91-9-9.07.75-17.83,3.6-25,9.74-6.39,5.51-10.78,13.9-9.73,22.28s8.6,16,17,15.42c5.9-.39,11.86-4.37,17.31-2.1,5.73,2.39,6.8,9.81,9.38,15.45a23.72,23.72,0,0,0,22.74,13.54c9.37-.73,17.9-8.08,19.76-17.29,1.39-6.93,1.55-16.58-.42-23.36-2.76-9.53-8-18.29-20.2-24.67" style="fill:#f5f5f5"></path></g><g id="freepik--Floor--inject-179"><path d="M466.52,474.9c0,.15-96.95.26-216.51.26s-216.53-.11-216.53-.26,96.93-.26,216.53-.26S466.52,474.76,466.52,474.9Z" style="fill:#263238"></path></g><g id="freepik--Plant--inject-179"><path d="M173.58,432.05c2.06,2.89,6,1.89,7.83.1s2.57-4.37,3.25-6.83c1.56-5.62,3.13-11.52,1.87-17.21a9.54,9.54,0,0,0-2.24-4.66,5,5,0,0,0-4.74-1.52c-2,.54-3.21,2.51-4.09,4.38a40.94,40.94,0,0,0-3.88,17.62c0,2.83.38,5.8,2,8.12" style="fill:#FF725E"></path><path d="M181.35,446.7a17.67,17.67,0,0,1,10.93-1.43,9.07,9.07,0,0,1,5.43,2.36c1.37,1.48,1.65,4.1.11,5.4a5.19,5.19,0,0,1-3.4.9c-2.89,0-6.11-.49-8.4,1.28-1.31,1-2.17,2.66-3.75,3.16a3.73,3.73,0,0,1-4.12-1.78,6.37,6.37,0,0,1-.5-4.7A7.17,7.17,0,0,1,181.35,446.7Z" style="fill:#FF725E"></path><path d="M168,436.28a10.55,10.55,0,0,0,1.55-9.75,18.73,18.73,0,0,0-5.84-8.31,30.87,30.87,0,0,0-10.39-6,11.12,11.12,0,0,0-4.65-.75,4.88,4.88,0,0,0-3.87,2.4c-1.07,2.08,0,4.58,1.14,6.62a79.62,79.62,0,0,0,6.88,10.27c2.06,2.6,4.42,5.16,7.52,6.32s6.33,1,7.95-1.18" style="fill:#FF725E"></path><path d="M173.87,475.92a7.77,7.77,0,0,0,.17-1.33c.08-1,.19-2.17.31-3.61s.36-3.32.76-5.29a40.9,40.9,0,0,1,1.87-6.26,23,23,0,0,1,3.13-5.68,11.75,11.75,0,0,1,4-3.39,11.31,11.31,0,0,1,3.38-1.09,7.88,7.88,0,0,0,1.31-.2,6,6,0,0,0-1.34,0,10.2,10.2,0,0,0-3.53.95,12,12,0,0,0-4.21,3.42,22.47,22.47,0,0,0-3.25,5.8,37.66,37.66,0,0,0-1.85,6.36A43.72,43.72,0,0,0,174,471c-.1,1.53-.13,2.77-.14,3.63A5.47,5.47,0,0,0,173.87,475.92Z" style="fill:#263238"></path><path d="M174.09,473.14a2.4,2.4,0,0,0,0-.61c0-.47,0-1,0-1.76,0-1.52,0-3.72,0-6.44.08-5.44.48-12.95,1.3-21.21s2-15.69,3-21c.25-1.34.5-2.54.73-3.6s.42-2,.61-2.7.29-1.26.39-1.71a2.11,2.11,0,0,0,.1-.61,2.52,2.52,0,0,0-.2.58c-.13.44-.3,1-.5,1.69s-.44,1.63-.69,2.68-.55,2.26-.82,3.59a197.89,197.89,0,0,0-3.18,21.06c-.82,8.27-1.16,15.8-1.14,21.26,0,2.72.07,4.93.15,6.45.05.71.1,1.29.13,1.75A2.3,2.3,0,0,0,174.09,473.14Z" style="fill:#263238"></path><path d="M174,458.62a10.62,10.62,0,0,0,0-1.83,48.06,48.06,0,0,0-.6-5,66.94,66.94,0,0,0-1.69-7.21,64.13,64.13,0,0,0-3.1-8.53,45.67,45.67,0,0,0-9-13.73,24.7,24.7,0,0,0-2.11-1.92c-.32-.27-.61-.54-.9-.75l-.82-.55a11.31,11.31,0,0,0-1.55-1,52.76,52.76,0,0,1,5.1,4.46,47.88,47.88,0,0,1,8.79,13.69,67.29,67.29,0,0,1,3.12,8.44c.82,2.65,1.37,5.09,1.79,7.14s.63,3.74.77,4.91A13.58,13.58,0,0,0,174,458.62Z" style="fill:#263238"></path></g><g id="freepik--Character--inject-179"><path d="M414.33,301.76c0-9,2.49-18,2.35-23.51s-3.64-11.33-9.07-12.31c-1.91-.34-3.9-.08-5.78-.55-2.22-.55-4.06-2.07-5.85-3.5-4.69-3.78-9.75-7.41-15.6-8.86s-12.71-.29-16.64,4.29c-2.83,3.3-3.75,7.78-4.39,12.08-.33,2.23-.6,4.59.33,6.64a6.34,6.34,0,0,0,7.46,3.32" style="fill:#263238"></path><path d="M408.15,358.81l-33.9-1.56c-.19-3.59,1.64-25.85,1.64-25.85s-12.81-2-13-14.81S365,274.36,365,274.36h0A44.57,44.57,0,0,1,409.73,280l1.9,1.47Z" style="fill:#b78876"></path><path d="M375.87,331.21a29.79,29.79,0,0,0,16.7-4.74s-3.94,9.22-16.73,8.06Z" style="fill:#aa6550"></path><path d="M410.05,294.72c.22-.1,8.8-2.61,8.52,6.15s-9,6.68-9,6.42S410.05,294.72,410.05,294.72Z" style="fill:#b78876"></path><path d="M412.33,304.06s.15.11.4.24a1.58,1.58,0,0,0,1.14.06c.94-.31,1.76-1.76,1.86-3.33a5,5,0,0,0-.36-2.2,1.78,1.78,0,0,0-1.11-1.21.77.77,0,0,0-.91.39c-.13.24-.08.42-.13.43s-.18-.15-.1-.51a1,1,0,0,1,.36-.54,1.22,1.22,0,0,1,.86-.2,2.16,2.16,0,0,1,1.55,1.41,5.33,5.33,0,0,1,.45,2.46c-.12,1.77-1.07,3.39-2.35,3.71a1.66,1.66,0,0,1-1.39-.27C412.34,304.27,412.3,304.08,412.33,304.06Z" style="fill:#aa6550"></path><path d="M367.81,294.44a1.83,1.83,0,0,0,1.76,1.85,1.76,1.76,0,0,0,1.89-1.65,1.83,1.83,0,0,0-1.77-1.85A1.75,1.75,0,0,0,367.81,294.44Z" style="fill:#263238"></path><path d="M367.41,292.38c.22.24,1.61-.78,3.58-.78s3.41,1,3.62.75-.12-.54-.75-1a5,5,0,0,0-2.9-.9,4.84,4.84,0,0,0-2.85.92C367.5,291.85,367.29,292.28,367.41,292.38Z" style="fill:#263238"></path><path d="M387.09,294.9a1.82,1.82,0,0,0,1.76,1.85,1.76,1.76,0,0,0,1.89-1.65,1.84,1.84,0,0,0-1.76-1.85A1.76,1.76,0,0,0,387.09,294.9Z" style="fill:#263238"></path><path d="M386.76,292.75c.23.24,1.62-.79,3.58-.78s3.42,1,3.63.75-.12-.54-.76-1a5,5,0,0,0-2.9-.89,4.86,4.86,0,0,0-2.85.92C386.86,292.21,386.65,292.64,386.76,292.75Z" style="fill:#263238"></path><path d="M379.62,307.35a13.39,13.39,0,0,0-3.2-.57c-.51-.06-1-.16-1.07-.5a2.68,2.68,0,0,1,.34-1.49c.47-1.22,1-2.49,1.49-3.83,2.06-5.45,3.56-9.93,3.34-10s-2.08,4.27-4.14,9.72c-.5,1.34-1,2.63-1.43,3.85a3,3,0,0,0-.26,2,1.3,1.3,0,0,0,.83.73,3.53,3.53,0,0,0,.85.12A12.15,12.15,0,0,0,379.62,307.35Z" style="fill:#263238"></path><path d="M385.41,308.72c-.32,0-.32,2.11-2.15,3.63s-4.11,1.28-4.12,1.58c0,.14.5.42,1.46.44a5.26,5.26,0,0,0,3.44-1.2,4.61,4.61,0,0,0,1.67-3C385.79,309.23,385.56,308.7,385.41,308.72Z" style="fill:#263238"></path><path d="M386.25,285c.2.53,2.16.28,4.47.56s4.18.9,4.49.42c.13-.23-.19-.73-.94-1.25a7.43,7.43,0,0,0-3.33-1.16,7.58,7.58,0,0,0-3.5.41C386.6,284.36,386.17,284.78,386.25,285Z" style="fill:#263238"></path><path d="M368.13,286.69c.35.44,1.7,0,3.33,0s3,.3,3.33-.17c.14-.23-.07-.68-.68-1.1a4.83,4.83,0,0,0-5.37.17C368.17,286,368,286.47,368.13,286.69Z" style="fill:#263238"></path><path d="M412.31,280.86c-.17,3.73.66,7.89,0,11.56-.1.55-1.54,2-1.66,2.58-.76,3.25-2.1,4.64-4,1.29-.74-1.29-1.22-4.87-1.51-6.32q-1.17-5.91-2.33-11.83a20.61,20.61,0,0,1-9.74,2.31c-3.37-.2-6.79-1.91-8.33-4.91a10.34,10.34,0,0,1-16,2.1,4.32,4.32,0,0,1-5.71,1.22,5.14,5.14,0,0,1-2.08-5.65c.88-3.13,4.23-4.83,7.35-5.74,12.18-3.59,25.66-.78,36.61,5.65a18.58,18.58,0,0,1,4.43,3.33c1.25,1.37,3,3,3,4.83" style="fill:#263238"></path><path d="M362.56,258.48a17.83,17.83,0,0,1,2.35-1.92,13.42,13.42,0,0,1,7.88-1.87c6.91.45,16.53,4.12,24.11,11.71a41.41,41.41,0,0,1,3,3.33l.23.27.32-.15a9.64,9.64,0,0,1,11.64,3c2.31,3.34,2.33,7.31,1.82,10.26a37.11,37.11,0,0,1-2.09,6.94,20.31,20.31,0,0,0-.91,2.5,12.93,12.93,0,0,0,1.22-2.37,32.22,32.22,0,0,0,2.39-7,17.38,17.38,0,0,0,.26-5.17,12.4,12.4,0,0,0-2-5.66A10.41,10.41,0,0,0,400,269l.56.13a43.19,43.19,0,0,0-3.05-3.41C389.77,258,380,254.34,372.81,254a13.41,13.41,0,0,0-8.1,2.22,8.77,8.77,0,0,0-1.7,1.55A2.06,2.06,0,0,0,362.56,258.48Z" style="fill:#455a64"></path><path d="M369.17,273.17a13,13,0,0,1,2.12-5,12.41,12.41,0,0,1,4.54-3.68,15,15,0,0,1,7-1.26c5.21.28,9.54,2.56,12.54,4.18a45.32,45.32,0,0,0,4.92,2.69c0-.05-.38-.4-1.17-1s-1.94-1.37-3.42-2.29c-2.94-1.77-7.35-4.24-12.82-4.53a15.18,15.18,0,0,0-7.46,1.41,12.39,12.39,0,0,0-4.7,4.06,9.67,9.67,0,0,0-1.57,3.87A3.44,3.44,0,0,0,369.17,273.17Z" style="fill:#455a64"></path><path d="M400.79,304.52H370.67a9.63,9.63,0,0,1-9.63-9.63h0a9.63,9.63,0,0,1,9.63-9.62h30.12a9.62,9.62,0,0,1,9.62,9.62h0A9.63,9.63,0,0,1,400.79,304.52Z" style="fill:#FF725E"></path><g style="opacity:0.30000000000000004"><path d="M400.79,304.52H370.67a9.63,9.63,0,0,1-9.63-9.63h0a9.63,9.63,0,0,1,9.63-9.62h30.12a9.62,9.62,0,0,1,9.62,9.62h0A9.63,9.63,0,0,1,400.79,304.52Z"></path></g><path d="M388.08,304.52H358a9.63,9.63,0,0,1-9.62-9.63h0a9.62,9.62,0,0,1,9.62-9.62h30.12a9.63,9.63,0,0,1,9.63,9.62h0A9.63,9.63,0,0,1,388.08,304.52Z" style="fill:#FF725E"></path><path d="M387.76,303.61H358.28a8.61,8.61,0,0,1-8.61-8.61h0a8.61,8.61,0,0,1,8.61-8.61h29.48a8.61,8.61,0,0,1,8.61,8.61h0A8.61,8.61,0,0,1,387.76,303.61Z" style="fill:#263238"></path><polygon points="371.67 286.39 357.7 303.59 361.65 303.59 375.84 286.39 371.67 286.39" style="fill:#e0e0e0"></polygon><path d="M375.08,291.9a51.71,51.71,0,0,1-4.53,5.73,52.66,52.66,0,0,1-4.93,5.39,101.63,101.63,0,0,1,9.46-11.12Z" style="fill:#e0e0e0"></path><path d="M377.35,288.88c.11.09-.09.53-.45,1s-.75.74-.86.65.09-.53.45-1S377.23,288.79,377.35,288.88Z" style="fill:#e0e0e0"></path><path d="M367.1,288a14.79,14.79,0,0,1-2.53,3.73,15.22,15.22,0,0,1-3.18,3.19,27.56,27.56,0,0,1,2.78-3.52A27.89,27.89,0,0,1,367.1,288Z" style="fill:#e0e0e0"></path><polygon points="454.35 425.54 460.35 474.85 439.73 474.76 430.89 424.77 454.35 425.54" style="fill:#b78876"></polygon><path d="M310.05,416.08l35.05-18.53,4.46,77.08,90.17.14-6.62-47.69,32.21-.83s-6-37.79-8.43-46.26S445,361.92,437.7,358s-28.91-13.35-28.91-13.35c-12.26,5.15-23.58,5-33.81-1.37a96.14,96.14,0,0,0-17.53,4.18c-7.46,2.6-15.09,5.73-18.29,7.61S302,378.5,302,378.5Z" style="fill:#FF725E"></path><path d="M431.25,386.84a2.16,2.16,0,0,1,.06.49c0,.38.06.84.09,1.4.06,1.3.14,3,.24,5.16.19,4.43.45,10.41.73,17s.61,12.66.89,17c.14,2.11.25,3.85.34,5.15,0,.56.06,1,.08,1.4a1.68,1.68,0,0,1,0,.49,1.71,1.71,0,0,1-.1-.48c-.05-.38-.1-.84-.18-1.39-.15-1.22-.31-3-.5-5.15-.37-4.34-.74-10.36-1-17s-.48-12.67-.58-17c0-2.12,0-3.86-.07-5.16,0-.56,0-1,0-1.41A1.72,1.72,0,0,1,431.25,386.84Z" style="fill:#263238"></path><path d="M346.86,423.74a6.43,6.43,0,0,1-.11-1.42c-.05-1-.1-2.32-.17-3.89-.15-3.38-.36-7.86-.59-12.82s-.4-9.55-.44-12.83c0-1.65,0-3,0-3.9a6.8,6.8,0,0,1,.09-1.43,7.5,7.5,0,0,1,.11,1.43c0,1,.1,2.32.16,3.89.16,3.38.37,7.86.6,12.82s.4,9.54.44,12.83c0,1.64,0,3,0,3.9A9.05,9.05,0,0,1,346.86,423.74Z" style="fill:#263238"></path><g style="opacity:0.30000000000000004"><path d="M431.43,390.74q4.33,12.86,8.66,25.69c.81,2.42,1.63,5,.94,7.47s-4.16,3.23-7.92,3.18c0,0-.14-3.48-.28-5.62q-1-14.61-1.94-29.2"></path></g><path d="M451.36,404.51a6.23,6.23,0,0,1,.4-.64l1.13-1.69c1-1.44,2.35-3.45,4-5.83l.05.32L448.92,391l.36-.06h0v0l0,0-.05.07-.1.14-.2.27-.39.55c-.26.36-.51.72-.77,1.07-.5.71-1,1.4-1.48,2.07l-2.73,3.77-.06-.31c2.36,1.71,4.31,3.17,5.7,4.21l1.62,1.23a5.38,5.38,0,0,1,.58.48,2.57,2.57,0,0,1-.57-.34l-1.64-1.11c-1.43-1-3.49-2.37-5.95-4.1l-.18-.13.13-.19,2.69-3.8,1.47-2.08c.26-.35.51-.71.77-1.07l.39-.55.19-.27.1-.14.05-.07,0,0v0h0l.36-.06,8,5.77.19.13-.14.18c-1.76,2.44-3.26,4.44-4.29,5.82l-1.2,1.57C451.51,404.36,451.37,404.54,451.36,404.51Z" style="fill:#fafafa"></path><path d="M417.26,384.6a4.13,4.13,0,0,1,.4-.64c.3-.46.68-1,1.13-1.69,1-1.43,2.35-3.45,4-5.83l.06.32-8.05-5.71.36-.06h0v0l0,0-.05.06-.1.14-.19.28-.39.54-.77,1.07c-.51.71-1,1.4-1.49,2.07L409.41,379l-.05-.32c2.36,1.71,4.31,3.17,5.7,4.21l1.61,1.23a6.39,6.39,0,0,1,.59.48s-.19-.09-.57-.34l-1.65-1.1c-1.42-1-3.48-2.38-5.94-4.11l-.18-.13.13-.19,2.68-3.8,1.48-2.08.77-1.07.39-.55.19-.27.1-.14,0-.07,0,0,0,0h0c-.33.05.44-.08.36-.07l8,5.77.18.13-.13.19c-1.77,2.43-3.26,4.43-4.29,5.81l-1.2,1.57A2.84,2.84,0,0,1,417.26,384.6Z" style="fill:#fafafa"></path><path d="M367.25,389.13a5,5,0,0,1,.4-.65l1.13-1.68c1-1.44,2.35-3.45,4-5.83l.05.31-8.05-5.71.36-.06h0v0l0,0-.05.07-.09.14-.2.27-.39.55c-.26.36-.52.71-.77,1.07-.51.7-1,1.4-1.49,2.07l-2.73,3.77,0-.31c2.36,1.71,4.31,3.17,5.7,4.21l1.61,1.23a5,5,0,0,1,.59.48,3.76,3.76,0,0,1-.57-.34L365,387.68c-1.43-1-3.49-2.37-6-4.11l-.18-.13.13-.18,2.68-3.8,1.48-2.08.77-1.08.39-.54.19-.28.1-.13.05-.07,0,0h0l.36-.06,8,5.77.18.13-.13.18c-1.77,2.44-3.26,4.44-4.29,5.81l-1.2,1.58A3.47,3.47,0,0,1,367.25,389.13Z" style="fill:#fafafa"></path><path d="M372,425.29a6.23,6.23,0,0,1,.4-.64l1.13-1.69c1-1.44,2.35-3.45,4-5.83l0,.32-8-5.71.36-.06h0v0l0,0-.05.07-.1.14-.2.27-.39.55c-.26.36-.51.72-.77,1.07-.5.71-1,1.4-1.48,2.07l-2.73,3.77-.06-.31c2.36,1.71,4.31,3.17,5.7,4.21l1.62,1.23a5.38,5.38,0,0,1,.58.48,3.28,3.28,0,0,1-.57-.34l-1.64-1.11c-1.42-1-3.49-2.37-5.95-4.1l-.18-.13.13-.19,2.69-3.8,1.47-2.08.77-1.07.39-.55.2-.27.09-.14.05-.07,0,0v0h0l.37-.06,8,5.77.19.13-.13.18c-1.77,2.44-3.27,4.44-4.3,5.82l-1.2,1.57C372.19,425.14,372.05,425.32,372,425.29Z" style="fill:#fafafa"></path><path d="M328.67,395.24a4.13,4.13,0,0,1,.4-.64c.3-.46.68-1,1.13-1.69,1-1.43,2.35-3.45,4-5.83l.06.32-8-5.71.36-.06h0v0l0,0-.05.07-.1.14-.19.27-.39.55-.77,1.07c-.51.71-1,1.4-1.49,2.07-1,1.34-1.88,2.61-2.73,3.77l-.05-.31c2.36,1.71,4.31,3.17,5.7,4.21l1.61,1.23a6.39,6.39,0,0,1,.59.48s-.2-.09-.57-.34l-1.65-1.1c-1.42-1-3.48-2.38-5.94-4.11l-.18-.13.13-.19,2.68-3.8,1.48-2.08.77-1.07.38-.55.2-.27.1-.14.05-.07,0,0v0h0l.36-.06,8,5.77.18.13-.13.19c-1.77,2.43-3.26,4.43-4.3,5.81l-1.19,1.57A2.84,2.84,0,0,1,328.67,395.24Z" style="fill:#fafafa"></path><path d="M397.09,399.55a10.47,10.47,0,0,1,.84-1.37c.53-.82,1.28-1.95,2.2-3.28l.05.32-4.53-3.2L396,392h0v0l0,0-.06.07-.11.16-.22.3c-.14.21-.29.41-.43.61-.29.39-.57.78-.84,1.16l-1.54,2.11-.05-.31c1.3,1,2.37,1.79,3.14,2.39a12,12,0,0,1,1.24,1,8.65,8.65,0,0,1-1.25-.76c-.81-.52-2-1.31-3.4-2.28l-.18-.13.13-.19,1.5-2.14.83-1.17.43-.61.22-.3.11-.16,0-.08,0,0,0,0h0l.36-.06,4.49,3.25.19.14-.13.18c-1,1.38-1.88,2.5-2.48,3.26A8.1,8.1,0,0,1,397.09,399.55Z" style="fill:#fafafa"></path><path d="M440.09,379.23a14.88,14.88,0,0,1,.84-1.36c.54-.82,1.29-2,2.21-3.28l.05.31-4.53-3.2.36-.06h0l0,0,0,0,0,.08-.11.15-.22.31-.43.6-.84,1.16-1.54,2.12-.06-.32c1.3,1,2.38,1.79,3.15,2.39a10.06,10.06,0,0,1,1.23,1,8.13,8.13,0,0,1-1.24-.75c-.81-.53-2-1.31-3.4-2.29l-.18-.13.13-.19,1.5-2.14.83-1.17.43-.6.22-.31.11-.15.05-.08,0,0v0h0l.36-.06,4.49,3.25.19.14-.14.18c-1,1.38-1.88,2.5-2.47,3.26A7.66,7.66,0,0,1,440.09,379.23Z" style="fill:#fafafa"></path><path d="M337.46,372.59a11.76,11.76,0,0,1,.84-1.36c.53-.82,1.28-2,2.2-3.28l.05.31L336,365.07l.36-.06h0l0,0,0,0-.06.08-.11.16-.22.3-.43.6-.84,1.17-1.54,2.11-.06-.32c1.3,1,2.38,1.79,3.15,2.4a15,15,0,0,1,1.24,1,7.32,7.32,0,0,1-1.25-.75c-.81-.53-2-1.31-3.4-2.29l-.18-.13.13-.18,1.5-2.15.83-1.17.43-.6.22-.31.11-.15,0-.08,0,0v0h0l.36-.06,4.49,3.26.19.13-.14.18c-1,1.38-1.87,2.51-2.47,3.27A8.47,8.47,0,0,1,337.46,372.59Z" style="fill:#fafafa"></path><path d="M409.82,419.86a6.75,6.75,0,0,1,.73.21l1.93.62c1.65.54,4,1.3,6.72,2.25l-.29.14c.95-2.73,2.07-5.92,3.25-9.32,0-.07.3.63.16.33h0l0,0-.07,0L422,414l-.32-.11-.63-.23-1.25-.44-2.4-.85L413,410.77l.29-.14c-1,2.74-1.85,5-2.47,6.64-.29.76-.54,1.39-.73,1.9a6,6,0,0,1-.3.69,3.32,3.32,0,0,1,.17-.64l.6-1.89c.54-1.63,1.32-4,2.3-6.85l.08-.21.21.08,4.4,1.52,2.41.85,1.24.43.63.23.32.11.16.05.08,0,0,0h0c-.15-.3.19.41.16.33-1.22,3.39-2.35,6.57-3.33,9.3l-.07.21-.21-.08c-2.83-1-5.17-1.9-6.78-2.51l-1.84-.72A2.66,2.66,0,0,1,409.82,419.86Z" style="fill:#fafafa"></path><g style="opacity:0.2"><path d="M310.73,373.29c2.88,4.9,5.77,9.84,7.64,15.21a30,30,0,0,1,1.74,13.82,18.67,18.67,0,0,1-6.45,12.11A6.38,6.38,0,0,1,310,416c-2.41.07-4.33-2-5.41-4.17-2.62-5.27-2.21-11.49-1.42-17.32a166.33,166.33,0,0,1,3.53-18.4"></path></g><path d="M315.16,401.45l-9.64-67.88V322.46s-1.47-25-1.3-27.46c.19-2.79-1.12-3.56-2.15-3.56-1.62,0-2.89,1.91-3.13,4.3-.08.83-.85,14-.85,14a31.23,31.23,0,0,0-2.3-3.71c-1.78-2.59-6.24-4.3-10.93-4.46s-6,.21-6.16,2a2.29,2.29,0,0,0,.8,1.82,4.56,4.56,0,0,0,3,1.27c7.5.36,9.25,4.5,9.25,4.5v1.45s-4.33-3.55-8.05-2.42a4.46,4.46,0,0,0-1.5.8,5.87,5.87,0,0,0-5.67,8.4A2.45,2.45,0,0,0,278.8,321a3.17,3.17,0,0,0,1.38-.72,4.64,4.64,0,0,1,.7-.45l.57,4.07s1.77,9.08,2.09,13.12l-1.17,66.45a16.48,16.48,0,0,0,16.47,16.77h0A16.48,16.48,0,0,0,315.16,401.45Z" style="fill:#b78876"></path><path d="M303.43,332.53c-1.4.28-2.75-.82-3.41-2.09s-.87-2.71-1.44-4c-1.7-3.91-6.3-6-7.81-10-.21-.56-.29-1.31.21-1.64s1.07,0,1.53.3l11.9,7.66" style="fill:#b78876"></path><path d="M304.41,322.7a6.28,6.28,0,0,0-1.2-1c-.81-.57-2-1.38-3.44-2.36L294.61,316l-1.5-1a2.79,2.79,0,0,0-2-.71,1.19,1.19,0,0,0-.89,1,2.54,2.54,0,0,0,.13,1.15,9.58,9.58,0,0,0,.95,1.86c1.56,2.34,3.67,3.88,5.16,5.61a10.54,10.54,0,0,1,1.79,2.64c.41.91.64,1.85.95,2.69a5,5,0,0,0,2.66,3.27,1.82,1.82,0,0,0,1.56,0,4.21,4.21,0,0,1-1.43-.34,4.78,4.78,0,0,1-2.25-3.16,27.93,27.93,0,0,0-.88-2.78,10.62,10.62,0,0,0-1.84-2.86c-1.52-1.82-3.61-3.39-5-5.56a9.12,9.12,0,0,1-.86-1.67c-.2-.56-.13-1.1.19-1.13s.88.26,1.39.59l1.51,1,5.25,3.28c1.5.92,2.72,1.65,3.58,2.15A5.38,5.38,0,0,0,304.41,322.7Z" style="fill:#aa6550"></path><path d="M291.93,312.69a5.74,5.74,0,0,0-.69-2.59,4.51,4.51,0,0,0-2.17-1.8,11.19,11.19,0,0,0-3.51-.75,18.28,18.28,0,0,1-3.68-.57,6,6,0,0,1-2.66-1.56,2.3,2.3,0,0,1-.61-2,1.49,1.49,0,0,1,.29-.7c.05,0,0,.27-.09.73a2.19,2.19,0,0,0,.68,1.71,5.79,5.79,0,0,0,2.53,1.35,20.68,20.68,0,0,0,3.59.51,11.41,11.41,0,0,1,3.66.83,4.72,4.72,0,0,1,2.29,2.06,4.34,4.34,0,0,1,.51,2A1.54,1.54,0,0,1,291.93,312.69Z" style="fill:#aa6550"></path><path d="M299.05,294.82a15.73,15.73,0,0,1-.14,2.61c-.14,1.79-.3,3.92-.48,6.27s-.29,4.49-.4,6.28a13.78,13.78,0,0,1-.23,2.61,12.06,12.06,0,0,1-.13-2.62c0-1.61.06-3.85.24-6.3s.41-4.68.64-6.28A11.28,11.28,0,0,1,299.05,294.82Z" style="fill:#aa6550"></path><path d="M288.78,315.44s-.28-.11-.74-.34a2.41,2.41,0,0,0-2-.23,1.27,1.27,0,0,0-.75,1,6.46,6.46,0,0,0,0,1.7,3,3,0,0,1-.45,2,2.49,2.49,0,0,1-2.07.9,2.79,2.79,0,0,1-2-1,3.58,3.58,0,0,1-.85-1.88,11.52,11.52,0,0,1,.28-3.36,6.57,6.57,0,0,1,.81-2.11c.3-.45.56-.62.57-.6s-.17.24-.4.7a8,8,0,0,0-.62,2.09,12.2,12.2,0,0,0-.16,3.22,2.8,2.8,0,0,0,2.38,2.45,2,2,0,0,0,1.64-.7,2.45,2.45,0,0,0,.38-1.69,6.92,6.92,0,0,1,0-1.82,1.68,1.68,0,0,1,1-1.29,2.55,2.55,0,0,1,2.25.39A2.65,2.65,0,0,1,288.78,315.44Z" style="fill:#aa6550"></path><path d="M281,319.14s.08.28-.12.74a2.3,2.3,0,0,1-1.61,1.24,3,3,0,0,1-2.82-1.08,5,5,0,0,1-1.05-3.53,6,6,0,0,1,1.36-3.43,5.72,5.72,0,0,1,2.46-1.72,5.36,5.36,0,0,1,2-.33,1.63,1.63,0,0,1,.73.12,9.13,9.13,0,0,0-2.58.55,5.7,5.7,0,0,0-2.23,1.68,5.75,5.75,0,0,0-1.21,3.16,4.58,4.58,0,0,0,.9,3.19,2.69,2.69,0,0,0,2.38,1,2.18,2.18,0,0,0,1.5-1C281,319.4,281,319.13,281,319.14Z" style="fill:#aa6550"></path><path d="M289.47,328.51c0-.05.47-.11,1.25.1a4.92,4.92,0,0,1,2.62,1.84l-.45.09a13.62,13.62,0,0,1,.4-1.72,11.31,11.31,0,0,1,3.07-5.3,28.58,28.58,0,0,0-2.57,5.45c-.17.57-.31,1.14-.41,1.66l-.12.59-.33-.49a5.19,5.19,0,0,0-2.31-1.82A11.23,11.23,0,0,1,289.47,328.51Z" style="fill:#aa6550"></path><path d="M290.71,306.17c.12.07-.45,1-1.64,1.4s-2.19.08-2.14-.05.94-.07,2-.45S290.59,306.07,290.71,306.17Z" style="fill:#aa6550"></path></g><g id="freepik--Galaxy--inject-179"><path d="M354.21,205.17A38.78,38.78,0,0,0,358.33,138c-13.94-9.16-33-8.95-45.46-20.08C292,99.21,302.71,61.69,284.41,40.47c-11-12.73-30-15.72-46.47-12.12-20.78,4.55-27.53,24.72-42.16,34.48-13.46,9-23.47,7.44-38.9,3.21-30.11-8.28-44-5.78-63.06,2.56a137.41,137.41,0,0,0-14,8c-31.36,19.9-49.76,59.19-43.84,96,6.42,40,41,73.77,81.08,79.3,11.34,1.57,23.55,1.28,33.17,7.48,18.41,11.88,17,39.61,29.95,57.29,10.15,13.87,28.64,20,45.74,18.31s32.9-10.12,46.48-20.64c12.6-9.77,25.91-22.18,41.76-20.51,7.26.76,13.82,4.5,20.51,7.42s14.35,5.1,21.23,2.63c0,0-5.52-2.19-6.18-5.69-2.12-11.34,4.72-13,13.24-13-18.82-2.12-35.79-12.52-45-29-5.84-10.44-8.1-24.35-.86-33.86C325.42,211.32,341.78,211.31,354.21,205.17Z" style="fill:#FF725E"></path><path d="M354.21,205.17A38.78,38.78,0,0,0,358.33,138c-13.94-9.16-33-8.95-45.46-20.08C292,99.21,302.71,61.69,284.41,40.47c-11-12.73-30-15.72-46.47-12.12-20.78,4.55-27.53,24.72-42.16,34.48-13.46,9-23.47,7.44-38.9,3.21-30.11-8.28-44-5.78-63.06,2.56a137.41,137.41,0,0,0-14,8c-31.36,19.9-49.76,59.19-43.84,96,6.42,40,41,73.77,81.08,79.3,11.34,1.57,23.55,1.28,33.17,7.48,18.41,11.88,17,39.61,29.95,57.29,10.15,13.87,28.64,20,45.74,18.31s32.9-10.12,46.48-20.64c12.6-9.77,25.91-22.18,41.76-20.51,7.26.76,13.82,4.5,20.51,7.42s14.35,5.1,21.23,2.63c0,0-5.52-2.19-6.18-5.69-2.12-11.34,4.72-13,13.24-13-18.82-2.12-35.79-12.52-45-29-5.84-10.44-8.1-24.35-.86-33.86C325.42,211.32,341.78,211.31,354.21,205.17Z" style="fill:#fff;opacity:0.8"></path><path d="M327.63,237.53a14.19,14.19,0,0,0,1.05,9.22,15.31,15.31,0,0,0,6.26,6.66c10.79,6.21,21.09-2.87,22-12.93a13.59,13.59,0,0,0-1.74-7.72C348.56,220.77,330.59,224.15,327.63,237.53Z" style="fill:#FF725E"></path><path d="M327.63,237.53a14.19,14.19,0,0,0,1.05,9.22,15.31,15.31,0,0,0,6.26,6.66c10.79,6.21,21.09-2.87,22-12.93a13.59,13.59,0,0,0-1.74-7.72C348.56,220.77,330.59,224.15,327.63,237.53Z" style="fill:#fff;opacity:0.8"></path><path d="M185.81,89.11a4.09,4.09,0,0,1-.32.35l-1,1-3.86,3.76L166.31,108l.05-.14c.68,15,1.61,35.38,2.64,58.05l0,.51-.43-.28-5.17-3.46-32.8-22-.07-.05,0-.07c-4.9-14.62-9-26.94-11.94-35.64l-3.34-10.12c-.38-1.16-.67-2-.87-2.68-.09-.29-.16-.52-.21-.7a.67.67,0,0,1-.06-.24l.09.23.25.68c.22.63.53,1.52.94,2.66.81,2.36,2,5.77,3.47,10.08,3,8.68,7.15,21,12.11,35.58l-.09-.12,32.83,21.91,5.17,3.46-.4.23c-1-22.67-1.84-43-2.49-58v-.08l.06-.06,14.44-13.7,3.93-3.69,1-1C185.68,89.21,185.81,89.11,185.81,89.11Z" style="fill:#FF725E"></path><polygon points="170.54 159.1 170.44 162.49 173.17 164.49 169.92 165.44 168.85 168.65 166.95 165.85 163.56 165.83 165.64 163.16 164.61 159.93 167.79 161.08 170.54 159.1" style="fill:#FF725E"></polygon><polygon points="131.03 136.14 131.1 138.33 132.94 139.51 130.88 140.25 130.32 142.37 128.98 140.64 126.79 140.76 128.02 138.95 127.23 136.91 129.33 137.52 131.03 136.14" style="fill:#FF725E"></polygon><polygon points="114.01 87.23 115.67 89.35 118.35 89.19 116.84 91.42 117.82 93.92 115.24 93.17 113.16 94.88 113.07 92.19 110.81 90.74 113.33 89.83 114.01 87.23" style="fill:#FF725E"></polygon><polygon points="184.16 85.1 185.81 87.23 188.5 87.07 186.99 89.29 187.97 91.8 185.38 91.05 183.31 92.76 183.22 90.07 180.95 88.62 183.48 87.71 184.16 85.1" style="fill:#FF725E"></polygon><polygon points="165.74 105.6 166.8 106.95 168.51 106.85 167.55 108.27 168.18 109.87 166.53 109.39 165.2 110.48 165.14 108.77 163.7 107.84 165.31 107.26 165.74 105.6" style="fill:#FF725E"></polygon><path d="M242.85,180.61a6.74,6.74,0,0,1-.17.67c-.15.48-.35,1.11-.59,1.91l-2.27,7L232,213.87l-.12.38-.3-.27-3.77-3.47-13-12,.3,0-12.9,9.86-3.67,2.76-1,.71a1.69,1.69,0,0,1-.35.23,1.76,1.76,0,0,1,.31-.29l.94-.77,3.59-2.86,12.78-10,.16-.12.14.13,13,11.93L232,213.6l-.42.11,8-23.59,2.41-7,.67-1.88A2.9,2.9,0,0,1,242.85,180.61Z" style="fill:#FF725E"></path><polygon points="230.81 209.83 232.09 211.31 234.03 211.1 233.02 212.77 233.82 214.56 231.91 214.11 230.47 215.42 230.31 213.47 228.61 212.5 230.41 211.74 230.81 209.83" style="fill:#FF725E"></polygon><polygon points="196.46 211.01 197.09 211.75 198.06 211.65 197.55 212.48 197.95 213.36 197 213.14 196.28 213.79 196.21 212.82 195.36 212.34 196.26 211.97 196.46 211.01" style="fill:#FF725E"></polygon><polygon points="242.6 180.03 243.24 180.77 244.2 180.66 243.7 181.49 244.1 182.38 243.15 182.16 242.43 182.81 242.35 181.84 241.51 181.36 242.4 180.98 242.6 180.03" style="fill:#FF725E"></polygon><polygon points="214.66 197.2 215.3 197.94 216.27 197.83 215.76 198.66 216.16 199.55 215.21 199.32 214.49 199.98 214.41 199.01 213.57 198.52 214.47 198.15 214.66 197.2" style="fill:#FF725E"></polygon><path d="M254.89,292.87a3.24,3.24,0,0,1-.18.49l-.57,1.4c-.54,1.25-1.29,3-2.24,5.27-2,4.56-4.76,11-8.08,18.69l0,.11-.12,0-25.4,4.2-8.51,1.39-.39.07.1-.38L215,302.05l.12.24-14.92-6.67-4.12-1.87-1.07-.51a2.13,2.13,0,0,1-.36-.19,1.73,1.73,0,0,1,.38.13l1.1.45,4.16,1.77,15,6.51.16.07,0,.17c-1.59,6.4-3.47,13.92-5.5,22.1l-.3-.32,8.52-1.39,25.4-4.14-.17.14c3.4-7.66,6.24-14.08,8.25-18.62L254,294.7l.63-1.37A1.81,1.81,0,0,1,254.89,292.87Z" style="fill:#FF725E"></path><polygon points="212.71 321.44 212.02 323.27 213.13 324.88 211.18 324.78 209.99 326.34 209.48 324.45 207.64 323.8 209.27 322.73 209.32 320.78 210.84 322 212.71 321.44" style="fill:#FF725E"></polygon><polygon points="195.28 291.82 194.93 292.73 195.48 293.53 194.51 293.48 193.92 294.25 193.67 293.31 192.75 292.99 193.56 292.46 193.59 291.49 194.34 292.1 195.28 291.82" style="fill:#FF725E"></polygon><polygon points="244.53 317.58 244.18 318.49 244.74 319.29 243.76 319.24 243.18 320.01 242.92 319.07 242 318.75 242.82 318.22 242.84 317.25 243.6 317.86 244.53 317.58" style="fill:#FF725E"></polygon><polygon points="216.11 301.22 215.76 302.13 216.31 302.93 215.34 302.88 214.75 303.66 214.5 302.72 213.58 302.4 214.4 301.86 214.42 300.89 215.18 301.5 216.11 301.22" style="fill:#FF725E"></polygon><polygon points="256.07 291.96 255.72 292.87 256.27 293.67 255.3 293.62 254.71 294.39 254.46 293.46 253.54 293.13 254.35 292.6 254.38 291.63 255.13 292.24 256.07 291.96" style="fill:#FF725E"></polygon><circle cx="235.18" cy="87.98" r="10.6" style="fill:#FF725E"></circle><circle cx="79.87" cy="206.25" r="33.65" transform="translate(-136.75 250.88) rotate(-80.47)" style="fill:#FF725E"></circle><g style="opacity:0.30000000000000004"><path d="M75.5,216.75A5.49,5.49,0,1,1,70,211.27,5.49,5.49,0,0,1,75.5,216.75Z" style="fill:#fff"></path></g><g style="opacity:0.30000000000000004"><path d="M67.71,200.92a3.19,3.19,0,1,1-3.19-3.2A3.19,3.19,0,0,1,67.71,200.92Z" style="fill:#fff"></path></g><path d="M47.23,214.43c.15.59-28.8,28.36-21.34,34.28s38.85-9.26,65.61-30.88S142.71,170,136,163s-40.13,13.62-40.13,13.62l4,2.55s20.22-13,26.62-7.94S114.66,196,88.93,214.75s-50.59,32-54.45,26.82,14.35-22.31,14.35-22.31Z" style="fill:#FF725E"></path><g style="opacity:0.30000000000000004"><path d="M47.23,214.43c.15.59-28.8,28.36-21.34,34.28s38.85-9.26,65.61-30.88S142.71,170,136,163s-40.13,13.62-40.13,13.62l4,2.55s20.22-13,26.62-7.94S114.66,196,88.93,214.75s-50.59,32-54.45,26.82,14.35-22.31,14.35-22.31Z"></path></g><g style="opacity:0.30000000000000004"><path d="M61.33,182.55c.27.32-2,2.26-4.59,6.14a31,31,0,0,0-.68,34c2.43,4,4.63,6,4.34,6.33s-2.87-1.33-5.87-5.3a29.21,29.21,0,0,1-4.08-7.65,29.14,29.14,0,0,1,.42-21,29.19,29.19,0,0,1,4.38-7.49C58.4,183.76,61.17,182.31,61.33,182.55Z" style="fill:#fff"></path></g><path d="M111.15,279.18l.44.81a5.37,5.37,0,0,0,2.14,2.14l.8.44-.8.44a5.29,5.29,0,0,0-2.14,2.13l-.44.81-.44-.81a5.41,5.41,0,0,0-2.14-2.13l-.8-.44.8-.44a5.5,5.5,0,0,0,2.14-2.14Z" style="fill:#FF725E"></path><path d="M255.92,51.16l.35.66A4.45,4.45,0,0,0,258,53.55l.66.36-.66.36A4.41,4.41,0,0,0,256.27,56l-.35.65-.36-.65a4.29,4.29,0,0,0-1.74-1.74l-.65-.36.65-.36a4.32,4.32,0,0,0,1.74-1.73Z" style="fill:#FF725E"></path><path d="M79.66,127.53l.72,1.19a8.15,8.15,0,0,0,3.4,3.13l1.25.62-1.2.72a8.28,8.28,0,0,0-3.13,3.4l-.62,1.26-.72-1.2A8.25,8.25,0,0,0,76,133.52l-1.26-.62,1.2-.72a8.21,8.21,0,0,0,3.13-3.4Z" style="fill:#FF725E"></path><path d="M248.08,149.83l.72,1.2a8.18,8.18,0,0,0,3.39,3.13l1.26.62-1.2.72a8.21,8.21,0,0,0-3.13,3.4l-.62,1.26-.72-1.2a8.15,8.15,0,0,0-3.4-3.13l-1.25-.62,1.2-.72a8.19,8.19,0,0,0,3.12-3.4Z" style="fill:#FF725E"></path><path d="M301.74,272.15l.74,1.82a8.21,8.21,0,0,0,3.4,3.13l1.25.62-1.2.72a8.21,8.21,0,0,0-3.13,3.4l-.62,1.72-.72-1.67a8.28,8.28,0,0,0-3.4-3.13l-1.25-.62,1.2-.72a8.32,8.32,0,0,0,3.13-3.39Z" style="fill:#FF725E"></path><path d="M288.27,254.23l.32.8a3.56,3.56,0,0,0,1.49,1.36l.54.28-.52.31a3.65,3.65,0,0,0-1.37,1.49l-.27.75-.31-.73a3.65,3.65,0,0,0-1.49-1.37l-.55-.27.53-.31a3.56,3.56,0,0,0,1.36-1.49Z" style="fill:#FF725E"></path><path d="M164.36,228.21l.69.28a4.36,4.36,0,0,0,2.45.24l.73-.14-.28.69a4.37,4.37,0,0,0-.24,2.45l.14.73-.69-.28a4.46,4.46,0,0,0-2.45-.24l-.73.14.28-.69a4.42,4.42,0,0,0,.24-2.44Z" style="fill:#FF725E"></path><path d="M357.16,181l.34.14a2.13,2.13,0,0,0,1.22.12l.37-.07-.14.35a2.13,2.13,0,0,0-.12,1.22l.07.37-.35-.14a2.12,2.12,0,0,0-1.22-.12L357,183l.14-.35a2.21,2.21,0,0,0,.11-1.22Z" style="fill:#FF725E"></path><path d="M228.43,280.19l.35.14a2.21,2.21,0,0,0,1.22.12l.37-.07-.14.34a2.16,2.16,0,0,0-.12,1.23l.07.36-.35-.14a2.31,2.31,0,0,0-1.22-.12l-.37.07.14-.34a2.13,2.13,0,0,0,.12-1.22Z" style="fill:#FF725E"></path><path d="M122.07,216.26l.35.13a2.12,2.12,0,0,0,1.22.12l.36-.07-.13.35a2.13,2.13,0,0,0-.12,1.22l.07.37-.35-.14a2.13,2.13,0,0,0-1.22-.12l-.37.07.14-.35a2.12,2.12,0,0,0,.12-1.22Z" style="fill:#FF725E"></path><path d="M146.35,302.9l.42.17a2.78,2.78,0,0,0,1.51.15l.45-.09-.17.43a2.57,2.57,0,0,0-.15,1.5l.08.45-.42-.17a2.78,2.78,0,0,0-1.51-.15l-.45.09.18-.43a2.65,2.65,0,0,0,.14-1.5Z" style="fill:#FF725E"></path><path d="M205.7,142.18l.35.14a2.13,2.13,0,0,0,1.22.12l.37-.07-.14.35a2.13,2.13,0,0,0-.12,1.22l.07.37-.35-.14a2.13,2.13,0,0,0-1.22-.12l-.37.07.14-.35a2.13,2.13,0,0,0,.12-1.22Z" style="fill:#FF725E"></path><path d="M275.6,68.34l.34.14a2.25,2.25,0,0,0,1.23.11l.36-.06-.14.34a2.31,2.31,0,0,0-.12,1.22l.07.37-.34-.14a2.15,2.15,0,0,0-1.23-.12l-.36.07.14-.35a2.2,2.2,0,0,0,.12-1.22Z" style="fill:#FF725E"></path><path d="M63.12,103.61l.35.14a2.13,2.13,0,0,0,1.22.12l.37-.07-.14.35a2.12,2.12,0,0,0-.12,1.22l.07.36-.35-.13a2.13,2.13,0,0,0-1.22-.12l-.37.07.14-.35a2.13,2.13,0,0,0,.12-1.22Z" style="fill:#FF725E"></path><path d="M245.83,233.82l.35.14a2.13,2.13,0,0,0,1.22.12l.37-.07-.14.35a2.12,2.12,0,0,0-.12,1.22l.07.36-.35-.13a2.12,2.12,0,0,0-1.22-.12l-.36.06.13-.34a2.13,2.13,0,0,0,.12-1.22Z" style="fill:#FF725E"></path><circle cx="301.97" cy="168.65" r="25.23" transform="translate(-3.86 7.11) rotate(-1.34)" style="fill:#FF725E"></circle><g style="opacity:0.4"><path d="M310.19,159a4.12,4.12,0,1,1,4,4.21A4.12,4.12,0,0,1,310.19,159Z"></path></g><g style="opacity:0.4"><path d="M318.42,168.6a2.39,2.39,0,1,1,2.33,2.45A2.39,2.39,0,0,1,318.42,168.6Z"></path></g><g style="opacity:0.4"><path d="M315.21,176a.88.88,0,1,1-.91.86A.88.88,0,0,1,315.21,176Z"></path></g><path d="M261.63,114.69H324.2s-5.54-10.07-21.64-8.61c-15.38,1.4-16.16-5-24-5.73S264.24,105.56,261.63,114.69Z" style="fill:#fff"></path><path d="M180.76,268.27h78.58s-6.95-12.65-27.17-10.81c-19.32,1.76-20.3-6.22-30.12-7.2S184,256.81,180.76,268.27Z" style="fill:#fff"></path><path d="M254.12,226.45H290.7s-3.23-5.88-12.65-5c-9,.82-9.45-2.89-14-3.35S255.65,221.12,254.12,226.45Z" style="fill:#fff"></path></g></svg>
